<svg width="149" height="91" viewBox="0 0 149 91" fill="none" xmlns="http://www.w3.org/2000/svg">
<path d="M46.5 24.5002H3V45.5002C3 45.5002 12.7402 42.4328 17.5 45.5002C24.8859 50.26 24.8859 63.2404 17.5 68.0002C12.7402 71.0676 3 68.0002 3 68.0002V88.0002H46.5C46.5 88.0002 44.2497 78.983 46.5 74.0002C51.4828 62.9669 72.5172 62.9669 77.5 74.0002C79.7503 78.983 77.5 88.0002 77.5 88.0002H125.5V68.0002C125.5 68.0002 136.015 71.4342 141 68.0002C148.236 63.0154 148.236 50.485 141 45.5002C136.015 42.0662 125.5 45.5002 125.5 45.5002V24.5002H77.5C77.5 24.5002 79.4633 16.182 77.5 11.5002C72.8182 0.335874 51.1818 0.335874 46.5 11.5002C44.5367 16.182 46.5 24.5002 46.5 24.5002Z" stroke="#D83A56" stroke-width="5"/>
</svg>
